<mxfile host="6ac84f54-c805-49c0-a136-88f822f1159a" modified="2020-09-11T00:50:41.147Z" agent="5.0 (Macintosh; Intel Mac OS X 10_15_6) AppleWebKit/537.36 (KHTML, like Gecko) Code/1.48.2 Chrome/78.0.3904.130 Electron/7.3.2 Safari/537.36" etag="vHAPIgRkBvFgJuTlttpJ" version="13.1.3">
    <diagram id="6hGFLwfOUW9BJ-s0fimq" name="Page-1">
        <mxGraphModel dx="927" dy="1175" grid="0" gridSize="10" guides="1" tooltips="1" connect="1" arrows="1" fold="1" page="1" pageScale="1" pageWidth="1169" pageHeight="827" background="#ffffff" math="0" shadow="0" extFonts="Roboto^https://fonts.googleapis.com/css?family=Roboto">
            <root>
                <mxCell id="0"/>
                <mxCell id="1" parent="0"/>
                <mxCell id="96" value="KEPASO" style="rounded=0;whiteSpace=wrap;html=1;strokeColor=#1A1A1A;strokeWidth=1;fillColor=none;fontFamily=Roboto;fontSize=14;fontColor=#1A1A1A;align=center;verticalAlign=top;fontStyle=1;dashed=1;" parent="1" vertex="1">
                    <mxGeometry x="244" y="170" width="271" height="330" as="geometry"/>
                </mxCell>
                <mxCell id="97" value="Backend" style="rounded=0;whiteSpace=wrap;html=1;strokeColor=#1A1A1A;strokeWidth=1;fillColor=none;fontFamily=Roboto;fontSize=14;fontColor=#1A1A1A;align=right;verticalAlign=top;fontStyle=1" parent="1" vertex="1">
                    <mxGeometry x="259" y="391" width="240" height="90" as="geometry"/>
                </mxCell>
                <mxCell id="41" value="&lt;meta http-equiv=&quot;content-type&quot; content=&quot;text/html; charset=utf-8&quot; style=&quot;font-size: 14px;&quot;&gt;&lt;img alt=&quot;Home - Apache Camel&quot; class=&quot;n3VNCb&quot; src=&quot;https://camel.apache.org/_/img/quarkus.svg&quot; data-noaft=&quot;1&quot; jsname=&quot;HiaYvf&quot; jsaction=&quot;load:XAeZkd,gvK6lb;&quot; style=&quot;width: 400px; height: 400px; margin: 0px; font-size: 14px;&quot;&gt;" style="text;whiteSpace=wrap;html=1;fontSize=14;fontFamily=Roboto;fontColor=#1A1A1A;fontStyle=1" parent="1" vertex="1">
                    <mxGeometry x="465" y="254" width="30" height="146" as="geometry"/>
                </mxCell>
                <mxCell id="60" value="&lt;font color=&quot;#000000&quot; style=&quot;font-size: 14px;&quot;&gt;event bus&lt;/font&gt;" style="strokeWidth=1;outlineConnect=0;dashed=0;align=center;html=1;fontSize=14;shape=mxgraph.eip.messageChannel;verticalLabelPosition=bottom;labelBackgroundColor=none;verticalAlign=middle;fontColor=#1A1A1A;labelBorderColor=none;fillColor=#FFFFFF;fontFamily=Roboto;fontStyle=1" parent="1" vertex="1">
                    <mxGeometry x="284" y="428" width="100" height="28" as="geometry"/>
                </mxCell>
                <mxCell id="98" value="UI" style="rounded=0;whiteSpace=wrap;html=1;strokeColor=#1A1A1A;strokeWidth=1;fillColor=none;fontFamily=Roboto;fontSize=14;fontColor=#1A1A1A;align=right;verticalAlign=top;fontStyle=1" parent="1" vertex="1">
                    <mxGeometry x="259" y="212" width="240" height="90" as="geometry"/>
                </mxCell>
                <mxCell id="100" value="" style="aspect=fixed;html=1;points=[];align=center;image;fontSize=14;image=img/lib/mscae/Chart.svg;strokeColor=#1A1A1A;strokeWidth=2;fillColor=none;fontFamily=Roboto;fontStyle=1" parent="1" vertex="1">
                    <mxGeometry x="366.16" y="240" width="45.84" height="44" as="geometry"/>
                </mxCell>
                <mxCell id="101" value="POST&amp;nbsp;&lt;br style=&quot;font-size: 14px;&quot;&gt;&lt;br style=&quot;font-size: 14px;&quot;&gt;CloudEvent" style="text;html=1;align=left;verticalAlign=middle;resizable=0;points=[];autosize=1;fontSize=14;fontFamily=Roboto;fontColor=#1A1A1A;fontStyle=1" parent="1" vertex="1">
                    <mxGeometry x="171" y="413" width="80" height="55" as="geometry"/>
                </mxCell>
                <mxCell id="104" value="Charts" style="text;html=1;align=left;verticalAlign=middle;resizable=0;points=[];autosize=1;fontSize=14;fontFamily=Roboto;fontColor=#1A1A1A;fontStyle=1" parent="1" vertex="1">
                    <mxGeometry x="332" y="282" width="51" height="21" as="geometry"/>
                </mxCell>
                <mxCell id="105" value="Server&lt;br style=&quot;font-size: 14px;&quot;&gt;Side&lt;br style=&quot;font-size: 14px;&quot;&gt;Events" style="text;html=1;align=left;verticalAlign=middle;resizable=0;points=[];autosize=1;fontSize=14;fontFamily=Roboto;fontColor=#1A1A1A;fontStyle=1" parent="1" vertex="1">
                    <mxGeometry x="364" y="323" width="51" height="55" as="geometry"/>
                </mxCell>
                <mxCell id="106" style="edgeStyle=orthogonalEdgeStyle;rounded=0;orthogonalLoop=1;jettySize=auto;html=1;strokeColor=#333333;strokeWidth=1;fontFamily=Roboto;fontSize=14;fontColor=#1A1A1A;endArrow=classic;endFill=1;exitX=1;exitY=0.5;exitDx=-2.7;exitDy=0;exitPerimeter=0;fontStyle=1" parent="1" source="60" edge="1">
                    <mxGeometry relative="1" as="geometry">
                        <mxPoint x="432" y="428.5" as="sourcePoint"/>
                        <mxPoint x="415" y="302" as="targetPoint"/>
                        <Array as="points">
                            <mxPoint x="415" y="442"/>
                            <mxPoint x="415" y="302"/>
                        </Array>
                    </mxGeometry>
                </mxCell>
                <mxCell id="107" style="edgeStyle=orthogonalEdgeStyle;rounded=0;orthogonalLoop=1;jettySize=auto;html=1;strokeColor=#333333;strokeWidth=1;fontFamily=Roboto;fontSize=14;fontColor=#1A1A1A;endArrow=classic;endFill=1;entryX=0;entryY=0.5;entryDx=2.7;entryDy=0;entryPerimeter=0;fontStyle=1" parent="1" target="60" edge="1">
                    <mxGeometry relative="1" as="geometry">
                        <mxPoint x="175" y="442" as="sourcePoint"/>
                        <mxPoint x="270" y="448.0050000000001" as="targetPoint"/>
                        <Array as="points">
                            <mxPoint x="168" y="442"/>
                        </Array>
                    </mxGeometry>
                </mxCell>
                <mxCell id="108" value="" style="aspect=fixed;html=1;points=[];align=center;image;fontSize=14;image=img/lib/mscae/Chart.svg;strokeColor=#1A1A1A;strokeWidth=2;fillColor=none;fontFamily=Roboto;fontStyle=1" parent="1" vertex="1">
                    <mxGeometry x="289" y="238" width="45.84" height="44" as="geometry"/>
                </mxCell>
                <mxCell id="110" value="" style="shape=image;verticalLabelPosition=bottom;labelBackgroundColor=#ffffff;verticalAlign=top;aspect=fixed;imageAspect=0;image=data:image/png,iVBORw0KGgoAAAANSUhEUgAAAOYAAAEOCAYAAACdCmvgAAAdSUlEQVR4Ae2df5AcxXXH+/Z2TwadwFDSCfEbhwQHFEAKBgvhRLbkpIpQQIQB63QnBRcpF66kHEj+TKpSAQT5Jy5XOak4KLKJTpKBxCls81ugQ2BMDJig8MM2QeJHgpADEhYY3d7t7qXe7L7dudn50TPdM9M981UV9Pzo6X79fe9zr2emd1cI/IMCUAAKQAEoAAWgABSAAlAACkABKKBHgQE9zaCVIipw5eYHLzzzktUT00eav572+GZn0+4hWfs6zBoeqd10+xU3fEM8908zslZUZCuiXrkUyBLKIiubBErSA2AWOSoSjg1QJhTOc1lSKKkZgOkRs+y7gFJPBKhACTD1+KAwrQBKPa5UhZKswMMfPb6wvhUToCzCAyAdUFIwYSprPVLqAzABSvVR5N+CLihpJAAzf3/magGg1CO/TigBph6fWNsKoNTjOt1QAkw9frGyFUCpx21pQEmWVfWYh1ZsUuCqLQ9ddMbFn9uaxYoem3SJa+uCkdqNt11xw9/HWdEj2wfAlFWqIPUIytNXrp6Y/qhxZkGGlMswHCjHVn9DPDfZSMMAPPxJQ1VD22QoZwClkoe6UE6mAyUZBzCVXGTPxc70deXqCUCp5rMsoASYaj6y5mpAqcdVWUEJMPX4y+hWAKUe92QJJcDU4zNjWwGUelyTNZQAU4/fjGwFUOpxyzC9EqGnryk+6PGzFA9//FSx/Big1OPAvKAk6wGmHh8a0wqg1OOKPKEEmHp8aEwrgFKPK/KGEmDq8aMRrQBKPW4wAUoaCZbk6fFnrq1ce8cjnz5l5We3YvGAmhuGT6h99bbR1f+Q9YMeP6sH/Q7imD0KEJQnr/zsRGMKa19VvGYSlDQOPPxR8WbO13ahrDd+LWdTrO7eNChJTIBpaUgBSj2OMxFKgKnHt5m30rmnnGggUyppbyqUAFPJrflczFDOAEolB5gMJcBUcm32F6tCqeN3OLIftf4eTYeSRox7TP1+T6VFVShTMcrCRm2AkmQFmBYEF6DU4yRboASYevydaitlgTLtb2G3CUqAmSpS6o2XBUp1pcJbsA1KGg2W5IX7NLezV9+5c8Upn1q1FU9f1Vwwf3HtT28bXf2PJiyzizMS3GPGUSujugTl6ReumgCUaoITlLevtw9KGjXAVPO99qsZyumpxie0N16iBm2GktwEMA0K1jShLNM7TNuhBJglgdKgYaZuShGgBJiph4lcB2lmSjkLilGrKFCSNzCVzTkmAaUeBxQJSoCpJyYStwIo29KpLi4oGpQAMzFS6hdmCWWRH/wUEUqAqc5XohYcKC9aNYFXIonk615UVChpgLjH7Lo5mw2GcgbvKZUELzKUAFMpNOJfDCjja+Z3RdGhpDFjrayf51M4dvWdkytOv+iSCc6Uqg88UjDRiiYXLK79yab1q79p29rXuOLi6yvjKpagPkF52oWXbGvUs19mZ/qDnzh/oMoCJYUY7jETgBbnEheUZ8S5DnXnKlAmKGnkAHOu/7XuBUEZJ0toNcjSxsoGJbkJYKYUrEFQptSdb7OmT2N9jfYcLCOUJAHA9ASCjt0wKJEt5RUuK5QAUz5GpGuGQSndSEkqhv2RKjOU5H5kTI0QAEo9YpYdSoCpJ46cVmSgDMsQGk1xmrL1/hJQtiMBGVMDETJQauim8E0Ayp6LAWZPi0RbslBmmS0TDSTji7x6AMq5DgCYc/WItScLZaxGNVS2bRoLKPudjrWy/ZpIHfni1scvPvmClfRTeJErerzZQaqDklQaHql9ZdP61XcUfe1rXHdirWxcxYQQBOVJF6zc1pSAMkHzSpfYlC0JytvGAKWfwzGV9VMl5JgLytNDqnVPIVt2pehukCaAsiuH7wbA9JXF/2BcKP1bwVFAGR0DA9FVUIMUSAJl1tnShmnsMSfUvnLLOkxfo6hCxoxSKCGUEs2WrgqglHc5MmaEVkkyJTWJbDlXWEA5V4+oPWTMEIVsgTJkCEacApTx3QAwAzRLCmVAc6U9DCiTuR5TWR/dVKDMegpL5pv60AdQ+gSX5CFkTI9QtkHpMd+YXUCp5gqA6dJPBUpXM5lumpgtAaV6CGCtbEfDa769e+VJF1w80aw3pFb0eKXPYwrrtcGE/QWLazfcsm71Zqx9VfMG7jGFEATlqRd+entjunVqEjnzgtK0bElQ3joKKJPEkPea0k9lVaH0ClrWfUCp1/Olzpg6oES2FAJQ6oWSWistmIBSTzABSj06elsp5VTWZii9DsxzH1Cmp37pMqbtUJrywAdQpgcltVyqjGk7lOmGgnzrgFJeq6Q1SwOmDiiTiqzrOhOyJaDU5c3wdkoxldUFZV5PYMmFgDI8kIt2tvAZswhQmhB0yJTZeqHQS/Ku3v70Jaeev3xb0hU97Io8MyXZkHe2XLC49uVbR1dvwTI7joj0y8JOZQnK085fTsvsTlGREVACSpX4SXptIaeyRYEyqVN1XYdMqUvJ+O0U7gufdUCZd5ZkN+Y5hT12ce3Lt2D6yq7IvCzUVBZQ6okfgvJmQKlHzIStFGYqWyQoE/pSy2WAUouMyo0UImMWDcq8prCAUpknbQ1YDyag1BMLgFKPjrpasRpMVShNecjDzkSmZCVQWnuPWTQo8wpFZMq8lA/v18qMWUQo88iWgDIcjjzPWgemCpSmTV3Z8YCSlUDJCli1VnZs63985oTzl9Ha19jL7AAlu5x+NLb6xzePrv421r72NDFty5qVPw6UF8Rf+2oqkBQIeWRKgnLT+jWA0jQSPfZYMZXtQllvnuyxP3DXZCDJaEAZ6DqcsOFb8gClnjhFptSjY1atGJ0x40JpepYkpyJTZhXadvdjLJhxoLQBSEBpNyhZW28kmDJQ2gIjOxSZkpVAKaOAcWBGQWkbkOQEQCkTiqjjVsAoMIOgtBFGFhlQshIo4yhgDJh+UNoMJDkBUMYJRdR1K2AEmAzlzJT8e0r3IEzcBpQmesUem3IHk6BcvJxW9ABKlbDBe0oV9cy7Nte1sqN3/fh3Fi+lta+AUiU0jhmpXn/L+jV3Yu2riopmXZtbxiQol5yzbHtjpnmSWZIktyaP6SugTO4vk6/MBcyiQZkHkBRUgNJktNRsyxxMQKnmML4aULISxSwzBRNQ6gkiQKlHR5NbyQxMQKknDAClHh1NbyUTMIsEZV73kxRIgNJ0nPTZlzqYgFKPswClHh1taSVVMIsCZZ5ZkgIJUNqCkz47UwMTUOpxEqDUo6NtraQCZhGgzDtLUiABSttw0mevdjDX3f3j3z3x7GXbbF3RYwKQ5N75I9Uv3bZ+zVYss9MX7Da1pBVMgnLJ2cu2N2eaJ9okAtsKKFkJlHkroA1Mm6E0BUgKBmTKvJEwo38tYNoKpUlAAkozgDDFCmUwbYTSNCABpSk4mGOHEpi2QWkikIDSHBhMsiQxmDZBaSqQNkD55y9PXz99pHnGgBAzLZMi12Bb5uo0cNSCRdWnHrj+0p17Hn74V7JmJ/oGAxugNBlGdo7pD3pufKXxzekjjS+JgYEq6Zn4rzgPWKHM2p9J+/N+gdyCkdp/3nPd2om9O+WhJJli/9qX6VAmFVQhZhJdagOUDYJSiER/vBOJEnBR1j7V1V8Hyg17d977XwFDCzwcC0xTodQlZKBKmk8ASnlBbfKtO1uqQEnqSINpGpQ2OcwdhoDSrYZ52zriShVKaTBNgVKHaHmGAqCMp75N/uZsqQNKUiny/mFsx/OrRs5eui2vZXY2OScs7IYXVa/btH7NhKlrX+lBjyn3lKRjHn5P2qduKCPBdKD8raW09nVJWNDpPJdUHJ026G7LgXIMUOrWVWd7qnGnK1PymALvMbOAUlUMHoTJJaCM7x2b4oKypW4oSTHfV1O6obRJ6PhhFHwFoAzWJuhMHrGi0ufwIuc9ZaJXIkEa0PE+MMf+7dnliz553r3NAv1sQZgAaZ0DlPGVVQEkfm/tK1T6HF5Ue/6e69ZuTPKeMsrePjDpgptemrm7Md38Q5mHQ1EdlPG86VDe9HLjjpmpxh+Z5l8VSJLGWdI+F4zUnt82dvmGtybvezFp32HX+YJJFwDOMNmCzwHKYG3CziQFJKzNqHNJ+0wbSrK7EmT8351Tu6Y6NPjvQohGUB0cn6sAoJyrh+xeUkBk29dZLwsoyd7AjMmDQeZkJcJLQBmuT9DZvKBM0m9WUJJWgRmThaTMOThU+S4yJyvSXwLKfk1MPmI6lKRdJJhU6WvnDF0LOP1DDVD66yJzNAkgMu3qrpNlpmTbI6eyXJHKG1+avqs53Vpr2tM8t41ZbgPK5GrnBWXcfvOAklSNBSZdADjbwTi8qLpx09ia7aaufTX1lQipFxeOtuLq/4/bb15Q0kilprJuSTCtFQJQuiMi3nZcOOK1rq92nlDSKGJnTB56WTMnoOQIiF/mCWWcvvOGkpSNnTHZHWXMnICSvW9XaRuUpG7ijMmuKUvmBJTs8WRlHDiS9eB/VZx+TciUPIrEGZMbKEPmtADKzSaufeUYiQMHX5N1SVBuH79yPK21r3HHo5wxucOiZk5LoNxo6iusPKGU7ZuhfHPX91/ieM671AYmDaRocAJKtfCUBUOtF/+rZfs2EUoakVYwqcGiwAko/QNe9qgsGLLtxakn27epUNJYle8xvYI595y1yr/avLYWUHq9Gm9fFox4reqtbTKUNFLtGZPlu/HF6R3NmdYXTL33YTu9JaD0KhJvP28oZfo3HUpSPDUwqXHb4ASU8SD01paBwnuNzn2Z/m2AkjRJFUzqwBY45y+qbrhtbM0Og9e+0isRPH0NILlIUGYCpg1wmg7l2BNTm0VjduMxwwPVwcAvHA2I2AwOy0CRthlRNtiSKVmn1DMmd2Rq5rQBypmp2Y1iVlRrNSEWDA+IqkFwRgHB/k+zjLLBNihJq8zApM5Mg9MaKPmnLGaFMAnOKCDShJHbjrJheKT2kx3jV24wafEA2x5WZgomGWIKnKZDObq7vqVZb433PdU2BM4oIMKCTte5KBscKNddNv7mEw+8rKvPrNrJHEwaWN5wWgslR0XOcEYBwWamWUbZYDOUpFsuYFLHecFpPZQc7TnBGQUEm5dmGWWD7VCSdtpX/sg65GtLh9YNZrxCqDBQksgDQszMCPHBh7Oi0czmT2wUELK+T7NeEaAkfXIDkzp34Byq3J3F8r1CQcmR7YaTvpY7xfmPKVCG2VEUKMm9KbqSoye6vPGl6W3N6dY1fQ86oi+VqlFIKN0jd09r6aeIw6LXfZ3ktubmJHvtrxZmR5GgpJEbASYZkhachYeS4zclOMNg4K6zKMPsKBqUpGeuU1m3Q792ztD6Qc3T2gULq2MmL7MLfCXiFkZ2e0CIab7n1DStDYNB1iwd9cLsKCKUpJkxGZMdqCtzEpS3jq+5y9S1r1qhZPFoFjsrxBCvEEo4rQ0DwdVVJpththQVShLWODDJKFU4ywolk6ICZxgI3H5WZZgtRYaS9DUSTDIsDpwUiPxv/qLq2O0lzJQ8fi6TwOmSkZvJrQyzpehQkujGgknGBcHpBtEdOYDSrUa8aW0YCHNbTX8vzJYFi2rPbR+9bIONy+ziKGc0mDQQgrNRj36VYjqU63fXv9Wot8bSeiUU5PSozBkGQVCbaR4Ps4eg3HH15eNvPH3fK2naYELbxoNJIn31xeltrZD3nIAyPJSC4AyDILzFdM6G2VMmKEldK8AkQ4PgBJRykHjhDLodkGtNfy1AOVdTa8Aks71wAsq5zozaMxVOQNnvOWMWGPSb1n/k60udRQj30JnhkeoGk5++5nVP2a9a78hAZxHCYVr43hCC9vP+Byj9PWAVmDSEj/btuf7jI5Xzt1y6/LumLh4wEUp2P8FIn0oxAU5AyV7pLw34m9lvlM1HTIbSrStNa+lrSo6h7xCqtl+tuM+nvQ0owxU26Gudwg214awtUJKWlDmbTeF8lrNWHRBZfvseoIyOZoAZrZFUDZug5AHlASegZPXDS4AZro/UWRuh5IFlCSegZNWjS4AZrVFoDZuh5IFlASegZLXlSoApp5NvrSJAyQPrwtkQolrTe88ZBuUxi6vP7vjCFRvKsMyOtZYpAaaMSj51RifrdzanW+uzXvvqY4q2QwQnfbFXY4ae2OqBMwrK71xz2djrP3rgp9oGUZCGAGYCRzpQzrRGiwQlL9FzMmdLiKZi5gwDkiSnTElQ7vvhgz9L4ILCXwIwY7q4yFCyFDytTQonoGQlk5cAM4Z2RYOSs6SfBEnhBJR+asY/BjAlNSsTlCxJXDgBJSunXgJMCQ3LCCXLwnBGPRAClKyYnhJgRuhYJCjDpq5hMjhwtvyf1kYBSe3iQU+Yuv7nAKa/Ls5RQNkTxw9OQNnTR/cWwAxQtChQJs2SfrL4welXj48hU7IS8UuA6aNZEaDUCaRbIlk4AaVbtfjbANOjGaD0COKzGwUnoPQRLeYhgOkSzHYo08qSLom6m0FwDo9Un7nr2svGsaKnK1WiDYDZkW10sv4vTYuX2WUJJUeaF85jT6g+M7H298fefPqRn3MdlMkUoJ+dKf2/z339yb8QQlxu49rXPIB0B4wD52xF/PKwEHdf95k/O/jijwClW6CE2/jOn45wnYy5zhY48waS460yWBEfHviFeOOJJ8VMfeCZfQ/99Vj9f38KOFmghKV135KXcJyRl21fNW/DYK2yPYufnY80JqQCAWkilFOHDolW/ZefOvPSv5mYd+K5Z4UMAackFEDG9Ihk8gMgU4AkydyZkqAccH2b1+BRxz279/5bxupv78FHujzxJbsLMH2UMg1Ok4CMgpLlBJysRLISYAboZgKcpgFJUoVlSq+UgNOriPw+wAzRat1k/c5WDq9QTASSZIoDJcsKOFmJeCXAjNArSzhNBZIkSgIlSws4WQn5EmBKaJU2nCYDSfKoQMnyAk5WQq4EmHI6Cd1wmg4jy6IDSm4LcLIS0SXAjNaoW0MHnLYASYPuQrn7SXHk/UOi4nol0hUl5gbglBMMYMrp1K2VFE6bgKTBOlC+Qyt6nhBHDhGUVW2/Pw44u+EUuAEwA6UJPhEHTtuApFF3odzdgbLKn3UYAJzBYaH1DMBMKGcYnDbCyDIwlK8/vltMvf9+d0UPLVanf7NiQNsvUSNzsur9JdbK9msidWTHqnkbq/MqE7y2lmDk/6QaMLASQ/nG7t3CWWZX6YUH/7EZELPa1uo2Pjp4wScu/cuJoSVLf9NAOXI1CRlTUf4vTta/1ZpujdnyqZSg4bahPCBen/ROXzu/ctu5UEfmnGXKO23Wjj7uuf++7+bx6f0vvhJkX9mO9/4klm3kmsb7nVXzrqsM9TKnpmYzbaYH5W5x5NBB5+nrHHZcO7yZNHN6oaSBznx06LfP/IO/2orM2XM7MmZPC6UtWzNnF8pdBGXnUyJOVLRDgzOkI45rhzfj3HP6QekWHZmzpwbA7GmhvGUbnD0oHxdHDnYe9HBEaIQzCki38ICzrQamsu6oUNy2aVrbg3K3+OggZcpOKPC3ODtle4enr448rh3eDJvWxoGS2se0th2E/PdRMSRxuVsB0zMnQfnB/gPidZq+HjzovBLhqWn3RSVHhkLmjAulW8OyZ06W360JtjUoYCqcXSgfo+mr+55SuN5PdsKCoyMmnPS2U8e/MsPJ0uvQEW14FDANToZy36OTYoqgdFb0zIVQJXO2hz+rdRFCWeEEmB6YdO+aAqcD5dvviH2PPt5ePMAL0l3ZUDCj3ajgAx1VXHV7ALffc/K0lY/HeVobpjndxxKcr91frvecXReEiYNzagrkDWcPykkHSlGpuqatBBaNby6EDJj3uLsu13Gg5B3XegQVOPnBEitfNjgBJns+5TIvOLtQ7pzsfEqkvSC9D5okcBI97gjywunajyOvF0q+tkxwumXl8aNMSYHRyfqWxnRrPKvlewzl3kd2tRekV9pQMi9KcDoPeDrhw1FEDQ+oLXIPgpJd4sB53+0bpt95/mU+VsSSJS3i2IwcU1Zw0nvJD+me8hHKlO1XIu70lhxOerjT/ue0wTBW1EIpCki3M2vzj/vJaz+4fbzIcKqp6VYL29IKpA0nQ7n34V3tBz3dz1OSiT2Xx4GzPThCsvOZTMqMlYoY0LBEJQ6ULHLR4ex5iUeMMhMF0oKzB+Vjnaevnd+NmuPp3o4UnJ1p68DggBAVArJ3vapYSaDkPosMpz6FWS2U0grohrNSrYjD//OO2PfwY70HPY6HO26e4+3eTiiclBmr7ewoPTCJiipAupsvKpw977hHi+3MFNAF5xwoDx4SFff01fFyx9VzPN7bmQPnYAdEKntVtGmiC0o2qIhwpiA7y4VSVgFVOLtQPkTTV9eDHrd3ne3OAffxzj0nTVMHqpXeYnZZ42PW0w0ld180OOe4iAeJMnsFksLZhnK/2PfQLv8F6W4PO9u9A20YB4UYHBT0LSK8eieN0acFpNvWIsHZ85J7hNjORYG4cHKm3PvgTjFFn6d0TV97U9DeN9sRHPRwqFKrOHX5IU6aQJKQWUDJDisKnACTPWpIuW6yvqUpsQjBgfKtd8RrDz4q6gHT1y6c9FqjOigqtUHhPFntjLVIQLrdVwQ4Aabbo4ZsR8HZhnK/2Pvgo+1PidCC9K4n2xs8Ta0MEYxzXzamDSTJmGWW9HOb7XB23ek3OBzLT4EgOLtQPrDT+Txlpdp5T0mmVkQ7M86rCarn/VcGIN1jthlOgOn2pGHbo49PbW7UZzfy2lqG8rX7d4o6f3EWvfCvDYrKUNWZqvoNIQsgqd+8s6Tf2B04H960YfrNF17yO2/qMYBpqmc6djGclWqlevit/YKgpAc9gx+ricrHag6U3XtJz1jKDKRbiurRxz+/95Fbx22CE2C6PWjo9thT05sPvvr2xn07d1XrHxwW1aPnub8HpM9qANknibANTv61mP6R4IgxCuz555u/Vzn2vNNazelzK0O0CsD/72lWQJIwJk5bgxxGurRmjixZeNbnVxze/+qTzQ8P/F9QXVOOA0xTPBFhx3sv3Pu9hcuvOk20mue2H/P0LgCQPS28W25tWjNTSxaebQecANPrSYP3vXC6gy5ts23KkKyFnz62wAkw2YuWlAznbLPRlznTGkJRoGR9bIATYLK3LCoJzkXLrzpt1mdaq3MYRQPSrY3pcAJMt7cs2k4TThuBJNf5TV3DXGoynAAzzHOGn9MNp61AJoGSXWsqnACTPWRpqQtOW6GMmyX93GwinADTz1OWHSM4Fy5be6rfq5SoodgKJI1LB5SsTxfOd3/+w+bhA7/g43mVADMv5TX3+94L934/Dpw2A0nS6YSy3Z4QTXrPedbvrTj8Xv5wAkzNgOTZnAycALLfQ25NTIETYPb7yeojQXC6g8/WAerOkqSDny4mwAkwbY3SELvdcM7O0qc07f+XFZSsVN5wAkz2RMFKhjPtRQhpy5Y1kO7x5AknwHR7omDbDpzL155qK5x5QsmhkBecAJM9UNDSRjjTAJLc63c/KeP2POAEmDKesbyOTXCaBiW7Pms4ASYrX/DSdDhNBdIdFlnCCTDdyhd821Q4bYCyHRqzojlzZMnxZ31+xQfvvZrqCiGAWXAYvcMzCU57gCQV+ed6haDle2nDCTC9kVuCfQfOZWtPnm01z/N+TUkWw08LSAefHj8ah9LfaBfOd19/qnl4v/a1tQBTo/tsauq9Pff+YGEOcBYBSvazA+cn16z44N192uEEmKxyCcss4SwSkO5Qac0cOeH4FOAEmG6VS7idBZxFhZLDJQ04ASarW+IyLTjtA5KCoP9+UiY0dMMJMGVUL0EdnXCmCaSDTjJ2JLyo1rBOOAGmhLvKUkUVzrIC6Y4PB86z1B8IAUy3qtgWSeEElO3gofW4DOeHCk9rASZg7FMgDpz2AknDVpu6eoVzL5JXhRNgetXFvqNAFJxpA0lGuANdr1v0Ahlkqwqc/j8bpVcFtGaxAr8xtuX6VqN+RqUiZngYrVaLN60rU7E8vNGjavM//tTP7v/bneLAnl9ZJxgMhgJQAApAAShgtAL/D8OpKBCehm6wAAAAAElFTkSuQmCC;fontFamily=Roboto;fontStyle=1;fontSize=14;" parent="1" vertex="1">
                    <mxGeometry x="465.95" y="263" width="28.11" height="33" as="geometry"/>
                </mxCell>
            </root>
        </mxGraphModel>
    </diagram>
</mxfile>